<?xml version="1.0" encoding="UTF-8"?>
<svg xmlns="http://www.w3.org/2000/svg" id="Icons" viewBox="0 0 60 60" width="512" height="512" fill="white"><path d="M41.021,0h-.04A19.265,19.265,0,0,0,27.562,5.562,19,19,0,0,0,22.3,22.381l-2.551,2.552a2.991,2.991,0,0,0,0,4.234l.071.071L1.39,47.648A3.7,3.7,0,0,0,.312,50.119L0,57.56A2.35,2.35,0,0,0,2.355,60c.03,0,.059,0,.089,0l7-.28a2.37,2.37,0,0,0,1.736-.854,2.329,2.329,0,0,0,.51-1.826L11.211,53.6a.322.322,0,0,1,.091-.289.368.368,0,0,1,.311-.109l3.125.45a2.354,2.354,0,0,0,2.668-2.664l-.449-3.112a.375.375,0,0,1,.107-.321.336.336,0,0,1,.3-.088l3.122.439a2.353,2.353,0,0,0,2.669-2.657l-.433-3.142a.329.329,0,0,1,.091-.286.353.353,0,0,1,.317-.1l4.214.588a2.293,2.293,0,0,0,2.014-.66l1.441-1.44.089.088a3,3,0,0,0,4.234,0L37.7,37.714A18.7,18.7,0,0,0,41,38h.021A18.988,18.988,0,0,0,60,19,18.99,18.99,0,0,0,41.021,0ZM27.928,40.245a.308.308,0,0,1-.288.087L23.4,39.741a2.358,2.358,0,0,0-2.02.677,2.3,2.3,0,0,0-.644,1.981l.432,3.131a.355.355,0,0,1-.405.4l-3.112-.438a2.307,2.307,0,0,0-1.987.635,2.36,2.36,0,0,0-.69,2.027l.451,3.125a.356.356,0,0,1-.4.4l-3.137-.452a2.361,2.361,0,0,0-2.016.692,2.311,2.311,0,0,0-.64,1.98l.483,3.436a.324.324,0,0,1-.073.26.361.361,0,0,1-.272.131l-7,.28a.347.347,0,0,1-.264-.1.338.338,0,0,1-.1-.257l.312-7.449a1.691,1.691,0,0,1,.5-1.134l18.428-18.4,8.141,8.141ZM58,19A16.989,16.989,0,0,1,41.018,36H41a16.412,16.412,0,0,1-3.421-.348,1,1,0,0,0-.916.271l-2.96,2.96a1,1,0,0,1-1.406,0L21.167,27.752a.991.991,0,0,1,0-1.4l2.93-2.93a1,1,0,0,0,.27-.918A16.54,16.54,0,0,1,24,19,16.989,16.989,0,0,1,40.983,2h.036A16.989,16.989,0,0,1,58,19Z"/><path d="M49,9.038,35.538,12.006a1.583,1.583,0,0,0-1.01.724,1.629,1.629,0,0,0-.184,1.246l2.117,8.4a1.72,1.72,0,0,0,1.194,1.173l8.364,2.107a1.629,1.629,0,0,0,1.251-.183A1.586,1.586,0,0,0,48,24.457L50.962,11h0A1.652,1.652,0,0,0,49,9.038ZM38.057,20.529,36.6,14.757l4.965,2.261Zm4.925-2.1,2.26,4.965L39.47,21.944Zm.1-2.924-4.612-2.1,8.611-1.9Zm3.513,6.025-2.1-4.611,4-4Z"/><path d="M41.3,26.626l-5.013-1.169a2.429,2.429,0,0,1-1.116-.63,2.4,2.4,0,0,1-.624-1.1l-1.177-5.046a1.456,1.456,0,0,0-2.851.126L29.02,28.8a1.928,1.928,0,0,0,2.192,2.184l9.98-1.5h0a1.455,1.455,0,0,0,.109-2.853ZM31.014,28.987l1.06-7.059.531,2.277A4.385,4.385,0,0,0,35.813,27.4l2.257.527Z"/></svg>
